{
	"asset":{
		"generator":"Khronos glTF Blender I/O v4.5.48",
		"version":"2.0"
	},
	"extensionsUsed":[
		"KHR_materials_clearcoat"
	],
	"scene":0,
	"scenes":[
		{
			"name":"Scene",
			"nodes":[
				0,
				9
			]
		}
	],
	"nodes":[
		{
			"mesh":0,
			"name":"pack.bottom"
		},
		{
			"name":"Bone.005",
			"rotation":[
				5.679506005578337e-14,
				1.6120236283026954e-22,
				1.5112719543185506e-22,
				1
			],
			"scale":[
				0.9999999403953552,
				0.9999999403953552,
				0.9999999403953552
			],
			"translation":[
				-2.5260462144880316e-23,
				1.3999996185302734,
				4.768374424202193e-07
			]
		},
		{
			"children":[
				1
			],
			"name":"Bone.004",
			"rotation":[
				5.544279770529348e-13,
				1.2896188016679605e-21,
				1.2845814009844832e-21,
				1
			],
			"scale":[
				0.9999999403953552,
				0.9999999403953552,
				0.9999999403953552
			],
			"translation":[
				-1.2597944573311273e-22,
				1.3999998569488525,
				4.76838806662272e-07
			]
		},
		{
			"children":[
				2
			],
			"name":"Bone.003",
			"rotation":[
				4.061658301357518e-11,
				9.023302296974117e-20,
				9.023806360159891e-20,
				1
			],
			"scale":[
				0.9999999403953552,
				0.9999999403953552,
				0.9999999403953552
			],
			"translation":[
				4.751037863994758e-23,
				1.399999976158142,
				4.7683457182756683e-07
			]
		},
		{
			"children":[
				3
			],
			"name":"Bone.002",
			"rotation":[
				-2.169822543862665e-09,
				-4.824932105312622e-18,
				-4.8249221791452715e-18,
				1
			],
			"scale":[
				0.9999999403953552,
				0.9999999403953552,
				0.9999999403953552
			],
			"translation":[
				-1.075334796318936e-23,
				1.3999998569488525,
				4.82930204270815e-07
			]
		},
		{
			"children":[
				4
			],
			"name":"Bone.001",
			"rotation":[
				3.987755192724762e-08,
				8.867516456400346e-17,
				8.867516456400346e-17,
				1
			],
			"scale":[
				0.9999999403953552,
				0.9999999403953552,
				0.9999999403953552
			],
			"translation":[
				-1.0918784085699965e-22,
				1.399999976158142,
				2.6308532596885925e-07
			]
		},
		{
			"children":[
				5
			],
			"name":"Bone",
			"rotation":[
				0,
				2.7080440725830483e-17,
				2.7080440725830483e-17,
				1
			],
			"scale":[
				0.9999999403953552,
				0.9999999403953552,
				0.9999999403953552
			],
			"translation":[
				9.92847621852112e-19,
				-0.004471930675208569,
				1.5738825709377124e-07
			]
		},
		{
			"name":"Bone.Control",
			"rotation":[
				-2.6692541510442425e-08,
				-2.6692541510442425e-08,
				-0.7071067690849304,
				0.7071067690849304
			],
			"scale":[
				0.9999999403953552,
				0.9999999403953552,
				0.9999999403953552
			],
			"translation":[
				-1.6421369514903997e-15,
				8.395526885986328,
				7.915706419225899e-07
			]
		},
		{
			"mesh":1,
			"name":"pack.top",
			"skin":0
		},
		{
			"children":[
				8,
				6,
				7
			],
			"name":"Armature",
			"rotation":[
				0.7071068286895752,
				0,
				0,
				0.7071068286895752
			],
			"scale":[
				0.08210110664367676,
				0.08210110664367676,
				0.08210110664367676
			],
			"translation":[
				0,
				0.35368525981903076,
				-0.3470214307308197
			]
		}
	],
	"animations":[
		{
			"channels":[
				{
					"sampler":0,
					"target":{
						"node":6,
						"path":"translation"
					}
				},
				{
					"sampler":1,
					"target":{
						"node":6,
						"path":"rotation"
					}
				},
				{
					"sampler":2,
					"target":{
						"node":6,
						"path":"scale"
					}
				},
				{
					"sampler":3,
					"target":{
						"node":5,
						"path":"translation"
					}
				},
				{
					"sampler":4,
					"target":{
						"node":5,
						"path":"rotation"
					}
				},
				{
					"sampler":5,
					"target":{
						"node":5,
						"path":"scale"
					}
				},
				{
					"sampler":6,
					"target":{
						"node":4,
						"path":"translation"
					}
				},
				{
					"sampler":7,
					"target":{
						"node":4,
						"path":"rotation"
					}
				},
				{
					"sampler":8,
					"target":{
						"node":4,
						"path":"scale"
					}
				},
				{
					"sampler":9,
					"target":{
						"node":3,
						"path":"translation"
					}
				},
				{
					"sampler":10,
					"target":{
						"node":3,
						"path":"rotation"
					}
				},
				{
					"sampler":11,
					"target":{
						"node":3,
						"path":"scale"
					}
				},
				{
					"sampler":12,
					"target":{
						"node":2,
						"path":"translation"
					}
				},
				{
					"sampler":13,
					"target":{
						"node":2,
						"path":"rotation"
					}
				},
				{
					"sampler":14,
					"target":{
						"node":2,
						"path":"scale"
					}
				},
				{
					"sampler":15,
					"target":{
						"node":1,
						"path":"translation"
					}
				},
				{
					"sampler":16,
					"target":{
						"node":1,
						"path":"rotation"
					}
				},
				{
					"sampler":17,
					"target":{
						"node":1,
						"path":"scale"
					}
				},
				{
					"sampler":18,
					"target":{
						"node":7,
						"path":"translation"
					}
				},
				{
					"sampler":19,
					"target":{
						"node":7,
						"path":"rotation"
					}
				},
				{
					"sampler":20,
					"target":{
						"node":7,
						"path":"scale"
					}
				}
			],
			"name":"rip",
			"samplers":[
				{
					"input":11,
					"interpolation":"LINEAR",
					"output":12
				},
				{
					"input":11,
					"interpolation":"LINEAR",
					"output":13
				},
				{
					"input":14,
					"interpolation":"STEP",
					"output":15
				},
				{
					"input":14,
					"interpolation":"STEP",
					"output":16
				},
				{
					"input":11,
					"interpolation":"LINEAR",
					"output":17
				},
				{
					"input":14,
					"interpolation":"STEP",
					"output":15
				},
				{
					"input":14,
					"interpolation":"STEP",
					"output":18
				},
				{
					"input":11,
					"interpolation":"LINEAR",
					"output":19
				},
				{
					"input":14,
					"interpolation":"STEP",
					"output":20
				},
				{
					"input":14,
					"interpolation":"STEP",
					"output":21
				},
				{
					"input":11,
					"interpolation":"LINEAR",
					"output":22
				},
				{
					"input":14,
					"interpolation":"STEP",
					"output":20
				},
				{
					"input":14,
					"interpolation":"STEP",
					"output":23
				},
				{
					"input":11,
					"interpolation":"LINEAR",
					"output":24
				},
				{
					"input":14,
					"interpolation":"STEP",
					"output":20
				},
				{
					"input":14,
					"interpolation":"STEP",
					"output":25
				},
				{
					"input":11,
					"interpolation":"LINEAR",
					"output":26
				},
				{
					"input":14,
					"interpolation":"STEP",
					"output":27
				},
				{
					"input":11,
					"interpolation":"LINEAR",
					"output":28
				},
				{
					"input":14,
					"interpolation":"STEP",
					"output":29
				},
				{
					"input":14,
					"interpolation":"STEP",
					"output":15
				}
			]
		}
	],
	"materials":[
		{
			"doubleSided":true,
			"extensions":{
				"KHR_materials_clearcoat":{
					"clearcoatFactor":0.5,
					"clearcoatRoughnessFactor":0
				}
			},
			"name":"pack",
			"normalTexture":{
				"index":0
			},
			"pbrMetallicRoughness":{
				"baseColorTexture":{
					"index":1
				},
				"metallicFactor":0.75,
				"roughnessFactor":0.44999998807907104
			}
		}
	],
	"meshes":[
		{
			"name":"Cube.002",
			"primitives":[
				{
					"attributes":{
						"POSITION":0,
						"NORMAL":1,
						"TEXCOORD_0":2
					},
					"indices":3,
					"material":0
				}
			]
		},
		{
			"name":"Cube.001",
			"primitives":[
				{
					"attributes":{
						"POSITION":4,
						"NORMAL":5,
						"TEXCOORD_0":6,
						"JOINTS_0":7,
						"WEIGHTS_0":8
					},
					"indices":9,
					"material":0
				}
			]
		}
	],
	"textures":[
		{
			"sampler":0,
			"source":0
		},
		{
			"sampler":0,
			"source":1
		}
	],
	"images":[
		{
			"mimeType":"image/png",
			"name":"pack-normal",
			"uri":"pack-normal.png"
		},
		{
			"mimeType":"image/png",
			"name":"pack-diffuse",
			"uri":"pack-diffuse.png"
		}
	],
	"skins":[
		{
			"inverseBindMatrices":10,
			"joints":[
				6,
				5,
				4,
				3,
				2,
				1,
				7
			],
			"name":"Armature"
		}
	],
	"accessors":[
		{
			"bufferView":0,
			"componentType":5126,
			"count":396,
			"max":[
				0.028053240850567818,
				0.2766495645046234,
				0.3689214885234833
			],
			"min":[
				-0.019091425463557243,
				-0.5428602695465088,
				-0.36892178654670715
			],
			"type":"VEC3"
		},
		{
			"bufferView":1,
			"componentType":5126,
			"count":396,
			"type":"VEC3"
		},
		{
			"bufferView":2,
			"componentType":5126,
			"count":396,
			"type":"VEC2"
		},
		{
			"bufferView":3,
			"componentType":5123,
			"count":2088,
			"type":"SCALAR"
		},
		{
			"bufferView":4,
			"componentType":5126,
			"count":246,
			"max":[
				0.02446790412068367,
				0.5428602695465088,
				0.3689214587211609
			],
			"min":[
				-0.019091324880719185,
				0.24487651884555817,
				-0.36892175674438477
			],
			"type":"VEC3"
		},
		{
			"bufferView":5,
			"componentType":5126,
			"count":246,
			"type":"VEC3"
		},
		{
			"bufferView":6,
			"componentType":5126,
			"count":246,
			"type":"VEC2"
		},
		{
			"bufferView":7,
			"componentType":5121,
			"count":246,
			"type":"VEC4"
		},
		{
			"bufferView":8,
			"componentType":5126,
			"count":246,
			"type":"VEC4"
		},
		{
			"bufferView":9,
			"componentType":5123,
			"count":1248,
			"type":"SCALAR"
		},
		{
			"bufferView":10,
			"componentType":5126,
			"count":7,
			"type":"MAT4"
		},
		{
			"bufferView":11,
			"componentType":5126,
			"count":23,
			"max":[
				0.9583333333333334
			],
			"min":[
				0.041666666666666664
			],
			"type":"SCALAR"
		},
		{
			"bufferView":12,
			"componentType":5126,
			"count":23,
			"type":"VEC3"
		},
		{
			"bufferView":13,
			"componentType":5126,
			"count":23,
			"type":"VEC4"
		},
		{
			"bufferView":14,
			"componentType":5126,
			"count":2,
			"max":[
				0.9583333333333334
			],
			"min":[
				0.041666666666666664
			],
			"type":"SCALAR"
		},
		{
			"bufferView":15,
			"componentType":5126,
			"count":2,
			"type":"VEC3"
		},
		{
			"bufferView":16,
			"componentType":5126,
			"count":2,
			"type":"VEC3"
		},
		{
			"bufferView":17,
			"componentType":5126,
			"count":23,
			"type":"VEC4"
		},
		{
			"bufferView":18,
			"componentType":5126,
			"count":2,
			"type":"VEC3"
		},
		{
			"bufferView":19,
			"componentType":5126,
			"count":23,
			"type":"VEC4"
		},
		{
			"bufferView":20,
			"componentType":5126,
			"count":2,
			"type":"VEC3"
		},
		{
			"bufferView":21,
			"componentType":5126,
			"count":2,
			"type":"VEC3"
		},
		{
			"bufferView":22,
			"componentType":5126,
			"count":23,
			"type":"VEC4"
		},
		{
			"bufferView":23,
			"componentType":5126,
			"count":2,
			"type":"VEC3"
		},
		{
			"bufferView":24,
			"componentType":5126,
			"count":23,
			"type":"VEC4"
		},
		{
			"bufferView":25,
			"componentType":5126,
			"count":2,
			"type":"VEC3"
		},
		{
			"bufferView":26,
			"componentType":5126,
			"count":23,
			"type":"VEC4"
		},
		{
			"bufferView":27,
			"componentType":5126,
			"count":2,
			"type":"VEC3"
		},
		{
			"bufferView":28,
			"componentType":5126,
			"count":23,
			"type":"VEC3"
		},
		{
			"bufferView":29,
			"componentType":5126,
			"count":2,
			"type":"VEC4"
		}
	],
	"bufferViews":[
		{
			"buffer":0,
			"byteLength":4752,
			"byteOffset":0,
			"target":34962
		},
		{
			"buffer":0,
			"byteLength":4752,
			"byteOffset":4752,
			"target":34962
		},
		{
			"buffer":0,
			"byteLength":3168,
			"byteOffset":9504,
			"target":34962
		},
		{
			"buffer":0,
			"byteLength":4176,
			"byteOffset":12672,
			"target":34963
		},
		{
			"buffer":0,
			"byteLength":2952,
			"byteOffset":16848,
			"target":34962
		},
		{
			"buffer":0,
			"byteLength":2952,
			"byteOffset":19800,
			"target":34962
		},
		{
			"buffer":0,
			"byteLength":1968,
			"byteOffset":22752,
			"target":34962
		},
		{
			"buffer":0,
			"byteLength":984,
			"byteOffset":24720,
			"target":34962
		},
		{
			"buffer":0,
			"byteLength":3936,
			"byteOffset":25704,
			"target":34962
		},
		{
			"buffer":0,
			"byteLength":2496,
			"byteOffset":29640,
			"target":34963
		},
		{
			"buffer":0,
			"byteLength":448,
			"byteOffset":32136
		},
		{
			"buffer":0,
			"byteLength":92,
			"byteOffset":32584
		},
		{
			"buffer":0,
			"byteLength":276,
			"byteOffset":32676
		},
		{
			"buffer":0,
			"byteLength":368,
			"byteOffset":32952
		},
		{
			"buffer":0,
			"byteLength":8,
			"byteOffset":33320
		},
		{
			"buffer":0,
			"byteLength":24,
			"byteOffset":33328
		},
		{
			"buffer":0,
			"byteLength":24,
			"byteOffset":33352
		},
		{
			"buffer":0,
			"byteLength":368,
			"byteOffset":33376
		},
		{
			"buffer":0,
			"byteLength":24,
			"byteOffset":33744
		},
		{
			"buffer":0,
			"byteLength":368,
			"byteOffset":33768
		},
		{
			"buffer":0,
			"byteLength":24,
			"byteOffset":34136
		},
		{
			"buffer":0,
			"byteLength":24,
			"byteOffset":34160
		},
		{
			"buffer":0,
			"byteLength":368,
			"byteOffset":34184
		},
		{
			"buffer":0,
			"byteLength":24,
			"byteOffset":34552
		},
		{
			"buffer":0,
			"byteLength":368,
			"byteOffset":34576
		},
		{
			"buffer":0,
			"byteLength":24,
			"byteOffset":34944
		},
		{
			"buffer":0,
			"byteLength":368,
			"byteOffset":34968
		},
		{
			"buffer":0,
			"byteLength":24,
			"byteOffset":35336
		},
		{
			"buffer":0,
			"byteLength":276,
			"byteOffset":35360
		},
		{
			"buffer":0,
			"byteLength":32,
			"byteOffset":35636
		}
	],
	"samplers":[
		{
			"magFilter":9729,
			"minFilter":9987
		}
	],
	"buffers":[
		{
			"byteLength":35668,
			"uri":"pack.bin"
		}
	]
}
